<svg version="1.0" preserveAspectRatio="xMidYMid meet" viewBox="0 0 375 155.999996256" zoomAndPan="magnify" xmlns:xlink="http://www.w3.org/1999/xlink" xmlns="http://www.w3.org/2000/svg" style="max-height: 500px" width="375" height="155.999996256"><defs><g/><clipPath id="67551d3f02"><path clip-rule="nonzero" d="M 256 5 L 372 5 L 372 129 L 256 129 Z M 256 5"/></clipPath><clipPath id="db72724bf0"><path clip-rule="nonzero" d="M 321.894531 146.234375 L 241.171875 35.066406 L 306.308594 -12.234375 L 387.03125 98.933594 Z M 321.894531 146.234375"/></clipPath><clipPath id="7b20544a91"><path clip-rule="nonzero" d="M 321.894531 146.234375 L 241.171875 35.066406 L 306.308594 -12.234375 L 387.03125 98.933594 Z M 321.894531 146.234375"/></clipPath><clipPath id="23e179e4ce"><path clip-rule="nonzero" d="M 321.894531 146.234375 L 241.171875 35.066406 L 306.308594 -12.234375 L 387.03125 98.933594 Z M 321.894531 146.234375"/></clipPath></defs><g clip-path="url(#67551d3f02)"><g clip-path="url(#db72724bf0)"><g clip-path="url(#7b20544a91)"><g clip-path="url(#23e179e4ce)"><path fill-rule="nonzero" fill-opacity="1" d="M 263.421875 65.570312 C 275.636719 82.394531 299.375 86.0625 316.335938 73.746094 L 319.890625 71.164062 C 330.765625 63.265625 345.984375 65.609375 353.816406 76.390625 C 361.644531 87.171875 359.164062 102.371094 348.285156 110.269531 C 337.410156 118.167969 322.191406 115.824219 314.363281 105.042969 C 313.582031 103.964844 312.890625 102.828125 312.296875 101.648438 L 320.316406 101.792969 C 320.746094 101.800781 321.140625 101.554688 321.320312 101.164062 C 321.503906 100.773438 321.4375 100.3125 321.152344 99.988281 L 306.09375 82.832031 C 305.890625 82.601562 305.601562 82.464844 305.292969 82.460938 C 304.984375 82.457031 304.691406 82.582031 304.480469 82.808594 C 299.347656 88.339844 294.210938 93.875 289.074219 99.40625 C 288.78125 99.71875 288.703125 100.175781 288.871094 100.570312 C 289.039062 100.96875 289.425781 101.226562 289.855469 101.234375 L 297.625 101.378906 C 298.828125 105.566406 300.746094 109.492188 303.332031 113.050781 C 315.546875 129.875 339.285156 133.542969 356.242188 121.230469 C 373.203125 108.914062 377.0625 85.207031 364.847656 68.382812 C 352.628906 51.558594 328.890625 47.890625 311.929688 60.207031 L 308.378906 62.785156 C 297.5 70.6875 282.28125 68.339844 274.453125 57.558594 C 266.625 46.777344 269.105469 31.582031 279.984375 23.683594 C 290.859375 15.785156 306.078125 18.128906 313.90625 28.910156 C 314.6875 29.984375 315.378906 31.121094 315.96875 32.304688 L 307.949219 32.160156 C 307.527344 32.152344 307.136719 32.390625 306.953125 32.773438 C 306.769531 33.15625 306.828125 33.609375 307.09375 33.941406 L 321.585938 51.507812 C 321.78125 51.75 322.078125 51.894531 322.390625 51.902344 C 322.699219 51.914062 323.003906 51.789062 323.214844 51.5625 C 328.539062 45.890625 333.863281 40.222656 339.1875 34.554688 C 339.484375 34.238281 339.566406 33.78125 339.398438 33.382812 C 339.363281 33.304688 339.324219 33.234375 339.273438 33.167969 C 339.078125 32.894531 338.757812 32.722656 338.414062 32.71875 L 330.640625 32.574219 C 329.4375 28.382812 327.523438 24.460938 324.9375 20.898438 C 312.722656 4.078125 288.984375 0.410156 272.023438 12.722656 C 255.0625 25.039062 251.203125 48.746094 263.421875 65.570312 Z M 263.421875 65.570312" fill="#000000"/></g></g></g></g><g fill-opacity="1" fill="#000000"><g transform="translate(0.0000045, 124.388438)"><g><path d="M 4.453125 0 L 43.15625 0 C 44.546875 0 45.765625 -1.234375 45.765625 -2.609375 L 45.765625 -11.984375 C 45.765625 -13.359375 47 -14.59375 48.375 -14.59375 L 57.75 -14.59375 C 59.140625 -14.59375 60.359375 -15.8125 60.359375 -17.203125 L 60.359375 -41.3125 C 60.359375 -42.703125 59.140625 -43.921875 57.75 -43.921875 L 19.046875 -43.921875 C 17.65625 -43.921875 16.4375 -45.15625 16.4375 -46.53125 L 16.4375 -55.90625 C 16.4375 -57.296875 17.65625 -58.515625 19.046875 -58.515625 L 57.75 -58.515625 C 59.140625 -58.515625 60.359375 -59.75 60.359375 -61.125 L 60.359375 -70.5 C 60.359375 -71.875 59.140625 -73.109375 57.75 -73.109375 L 19.046875 -73.109375 C 17.65625 -73.109375 16.4375 -71.875 16.4375 -70.5 L 16.4375 -61.125 C 16.4375 -59.75 15.203125 -58.515625 13.828125 -58.515625 L 4.453125 -58.515625 C 3.078125 -58.515625 1.84375 -57.296875 1.84375 -55.90625 L 1.84375 -31.796875 C 1.84375 -30.40625 3.078125 -29.1875 4.453125 -29.1875 L 43.15625 -29.1875 C 44.546875 -29.1875 45.765625 -27.953125 45.765625 -26.578125 L 45.765625 -17.203125 C 45.765625 -15.8125 44.546875 -14.59375 43.15625 -14.59375 L 4.453125 -14.59375 C 3.078125 -14.59375 1.84375 -13.359375 1.84375 -11.984375 L 1.84375 -2.609375 C 1.84375 -1.234375 3.078125 0 4.453125 0 Z M 4.453125 0"/></g></g></g><g fill-opacity="1" fill="#000000"><g transform="translate(62.20469, 124.388438)"><g><path d="M 19.046875 0 L 43.15625 0 C 44.546875 0 45.765625 1.234375 45.765625 2.609375 L 45.765625 11.984375 C 45.765625 13.359375 44.546875 14.59375 43.15625 14.59375 L 4.453125 14.59375 C 3.078125 14.59375 1.84375 15.8125 1.84375 17.203125 L 1.84375 26.578125 C 1.84375 27.953125 3.078125 29.1875 4.453125 29.1875 L 43.15625 29.1875 C 44.546875 29.1875 45.765625 27.953125 45.765625 26.578125 L 45.765625 17.203125 C 45.765625 15.8125 47 14.59375 48.375 14.59375 L 57.75 14.59375 C 59.140625 14.59375 60.359375 13.359375 60.359375 11.984375 L 60.359375 -70.5 C 60.359375 -71.875 59.140625 -73.109375 57.75 -73.109375 L 48.375 -73.109375 C 47 -73.109375 45.765625 -71.875 45.765625 -70.5 L 45.765625 -17.203125 C 45.765625 -15.8125 44.546875 -14.59375 43.15625 -14.59375 L 19.046875 -14.59375 C 17.65625 -14.59375 16.4375 -15.8125 16.4375 -17.203125 L 16.4375 -70.5 C 16.4375 -71.875 15.203125 -73.109375 13.828125 -73.109375 L 4.453125 -73.109375 C 3.078125 -73.109375 1.84375 -71.875 1.84375 -70.5 L 1.84375 -17.203125 C 1.84375 -15.8125 3.078125 -14.59375 4.453125 -14.59375 L 13.828125 -14.59375 C 15.203125 -14.59375 16.4375 -13.359375 16.4375 -11.984375 L 16.4375 -2.609375 C 16.4375 -1.234375 17.65625 0 19.046875 0 Z M 19.046875 0"/></g></g></g><g fill-opacity="1" fill="#000000"><g transform="translate(124.409376, 124.388438)"><g><path d="M 4.453125 0 L 13.828125 0 C 15.203125 0 16.4375 -1.234375 16.4375 -2.609375 L 16.4375 -55.90625 C 16.4375 -57.296875 17.65625 -58.515625 19.046875 -58.515625 L 43.15625 -58.515625 C 44.546875 -58.515625 45.765625 -57.296875 45.765625 -55.90625 L 45.765625 -2.609375 C 45.765625 -1.234375 47 0 48.375 0 L 57.75 0 C 59.140625 0 60.359375 -1.234375 60.359375 -2.609375 L 60.359375 -55.90625 C 60.359375 -57.296875 59.140625 -58.515625 57.75 -58.515625 L 48.375 -58.515625 C 47 -58.515625 45.765625 -59.75 45.765625 -61.125 L 45.765625 -70.5 C 45.765625 -71.875 44.546875 -73.109375 43.15625 -73.109375 L 4.453125 -73.109375 C 3.078125 -73.109375 1.84375 -71.875 1.84375 -70.5 L 1.84375 -2.609375 C 1.84375 -1.234375 3.078125 0 4.453125 0 Z M 4.453125 0"/></g></g></g><g fill-opacity="1" fill="#000000"><g transform="translate(186.614062, 124.388438)"><g><path d="M 19.046875 0 L 57.75 0 C 59.140625 0 60.359375 -1.234375 60.359375 -2.609375 L 60.359375 -11.984375 C 60.359375 -13.359375 59.140625 -14.59375 57.75 -14.59375 L 19.046875 -14.59375 C 17.65625 -14.59375 16.4375 -15.8125 16.4375 -17.203125 L 16.4375 -55.90625 C 16.4375 -57.296875 17.65625 -58.515625 19.046875 -58.515625 L 57.75 -58.515625 C 59.140625 -58.515625 60.359375 -59.75 60.359375 -61.125 L 60.359375 -70.5 C 60.359375 -71.875 59.140625 -73.109375 57.75 -73.109375 L 19.046875 -73.109375 C 17.65625 -73.109375 16.4375 -71.875 16.4375 -70.5 L 16.4375 -61.125 C 16.4375 -59.75 15.203125 -58.515625 13.828125 -58.515625 L 4.453125 -58.515625 C 3.078125 -58.515625 1.84375 -57.296875 1.84375 -55.90625 L 1.84375 -17.203125 C 1.84375 -15.8125 3.078125 -14.59375 4.453125 -14.59375 L 13.828125 -14.59375 C 15.203125 -14.59375 16.4375 -13.359375 16.4375 -11.984375 L 16.4375 -2.609375 C 16.4375 -1.234375 17.65625 0 19.046875 0 Z M 19.046875 0"/></g></g></g><g fill-opacity="1" fill="#000000"><g transform="translate(1.232122, 42.952496)"><g><path d="M 16.3125 0.453125 C 13.601562 0.453125 11.34375 0.113281 9.53125 -0.5625 C 7.71875 -1.25 6.285156 -2.191406 5.234375 -3.390625 C 4.179688 -4.597656 3.425781 -5.972656 2.96875 -7.515625 C 2.507812 -9.054688 2.28125 -10.679688 2.28125 -12.390625 L 8.953125 -12.390625 C 8.984375 -10.554688 9.210938 -9.101562 9.640625 -8.03125 C 10.066406 -6.96875 10.8125 -6.207031 11.875 -5.75 C 12.945312 -5.300781 14.425781 -5.078125 16.3125 -5.078125 C 18.382812 -5.078125 20.003906 -5.234375 21.171875 -5.546875 C 22.347656 -5.867188 23.179688 -6.328125 23.671875 -6.921875 C 24.160156 -7.515625 24.40625 -8.207031 24.40625 -9 C 24.40625 -10.25 23.960938 -11.1875 23.078125 -11.8125 C 22.191406 -12.4375 20.972656 -12.867188 19.421875 -13.109375 L 13.84375 -14.03125 C 10.007812 -14.632812 7.269531 -15.859375 5.625 -17.703125 C 3.976562 -19.546875 3.15625 -21.8125 3.15625 -24.5 C 3.15625 -25.925781 3.550781 -27.238281 4.34375 -28.4375 C 5.132812 -29.644531 6.457031 -30.613281 8.3125 -31.34375 C 10.175781 -32.082031 12.691406 -32.453125 15.859375 -32.453125 C 18.722656 -32.453125 21.078125 -32.109375 22.921875 -31.421875 C 24.765625 -30.734375 26.203125 -29.832031 27.234375 -28.71875 C 28.273438 -27.613281 29 -26.40625 29.40625 -25.09375 C 29.820312 -23.78125 30.03125 -22.484375 30.03125 -21.203125 L 23.359375 -21.15625 C 23.359375 -23.195312 22.804688 -24.75 21.703125 -25.8125 C 20.609375 -26.882812 18.660156 -27.421875 15.859375 -27.421875 C 14.117188 -27.421875 12.753906 -27.269531 11.765625 -26.96875 C 10.773438 -26.664062 10.082031 -26.253906 9.6875 -25.734375 C 9.289062 -25.210938 9.09375 -24.632812 9.09375 -24 C 9.09375 -23.050781 9.488281 -22.132812 10.28125 -21.25 C 11.070312 -20.363281 12.351562 -19.785156 14.125 -19.515625 L 19.421875 -18.640625 C 22.222656 -18.210938 24.453125 -17.570312 26.109375 -16.71875 C 27.773438 -15.875 28.972656 -14.785156 29.703125 -13.453125 C 30.429688 -12.128906 30.796875 -10.507812 30.796875 -8.59375 C 30.796875 -7.550781 30.578125 -6.5 30.140625 -5.4375 C 29.703125 -4.375 28.941406 -3.398438 27.859375 -2.515625 C 26.773438 -1.628906 25.296875 -0.910156 23.421875 -0.359375 C 21.546875 0.179688 19.175781 0.453125 16.3125 0.453125 Z M 16.3125 0.453125"/></g></g></g><g fill-opacity="1" fill="#000000"><g transform="translate(34.314833, 42.952496)"><g><path d="M 2.28125 -16.046875 C 2.28125 -19.367188 3.007812 -22.253906 4.46875 -24.703125 C 5.9375 -27.148438 7.941406 -29.050781 10.484375 -30.40625 C 13.035156 -31.769531 15.941406 -32.453125 19.203125 -32.453125 C 21.453125 -32.453125 23.601562 -32.125 25.65625 -31.46875 C 27.71875 -30.8125 29.554688 -29.757812 31.171875 -28.3125 C 32.785156 -26.863281 34.054688 -24.984375 34.984375 -22.671875 C 35.910156 -20.359375 36.375 -17.554688 36.375 -14.265625 L 9.1875 -14.265625 C 9.519531 -11.242188 10.613281 -8.929688 12.46875 -7.328125 C 14.332031 -5.734375 16.578125 -4.9375 19.203125 -4.9375 C 20.816406 -4.9375 22.335938 -5.238281 23.765625 -5.84375 C 25.191406 -6.457031 26.410156 -7.28125 27.421875 -8.3125 C 28.429688 -9.351562 29.101562 -10.515625 29.4375 -11.796875 L 36.25 -11.796875 C 35.789062 -9.503906 34.773438 -7.425781 33.203125 -5.5625 C 31.628906 -3.707031 29.644531 -2.238281 27.25 -1.15625 C 24.863281 -0.0820312 22.179688 0.453125 19.203125 0.453125 C 16.765625 0.453125 14.515625 0.0234375 12.453125 -0.828125 C 10.398438 -1.679688 8.609375 -2.859375 7.078125 -4.359375 C 5.554688 -5.867188 4.375 -7.617188 3.53125 -9.609375 C 2.695312 -11.609375 2.28125 -13.753906 2.28125 -16.046875 Z M 9.546875 -19.75 L 28.96875 -19.75 C 28.425781 -21.601562 27.628906 -23.054688 26.578125 -24.109375 C 25.523438 -25.160156 24.347656 -25.914062 23.046875 -26.375 C 21.753906 -26.832031 20.472656 -27.0625 19.203125 -27.0625 C 16.878906 -27.0625 14.847656 -26.425781 13.109375 -25.15625 C 11.378906 -23.894531 10.191406 -22.09375 9.546875 -19.75 Z M 9.546875 -19.75"/></g></g></g><g fill-opacity="1" fill="#000000"><g transform="translate(72.972265, 42.952496)"><g><path d="M 2.28125 0 L 2.28125 -32 L 9.140625 -32 L 7.765625 -22.578125 L 9.140625 -22.578125 C 9.660156 -24.859375 10.519531 -26.6875 11.71875 -28.0625 C 12.925781 -29.4375 14.378906 -30.4375 16.078125 -31.0625 C 17.785156 -31.6875 19.617188 -32 21.578125 -32 C 23.066406 -32 24.554688 -31.769531 26.046875 -31.3125 C 27.546875 -30.851562 28.914062 -30.054688 30.15625 -28.921875 C 31.40625 -27.796875 32.410156 -26.21875 33.171875 -24.1875 C 33.941406 -22.164062 34.328125 -19.570312 34.328125 -16.40625 L 34.328125 0 L 27.46875 0 L 27.46875 -16.40625 C 27.46875 -19.0625 27.109375 -21.117188 26.390625 -22.578125 C 25.671875 -24.035156 24.703125 -25.054688 23.484375 -25.640625 C 22.265625 -26.222656 20.878906 -26.515625 19.328125 -26.515625 C 18.078125 -26.515625 16.847656 -26.351562 15.640625 -26.03125 C 14.441406 -25.707031 13.351562 -25.171875 12.375 -24.421875 C 11.40625 -23.679688 10.628906 -22.65625 10.046875 -21.34375 C 9.472656 -20.03125 9.1875 -18.382812 9.1875 -16.40625 L 9.140625 0 Z M 2.28125 0"/></g></g></g><g fill-opacity="1" fill="#000000"><g transform="translate(109.573437, 42.952496)"><g><path d="M 16.3125 0.453125 C 13.601562 0.453125 11.34375 0.113281 9.53125 -0.5625 C 7.71875 -1.25 6.285156 -2.191406 5.234375 -3.390625 C 4.179688 -4.597656 3.425781 -5.972656 2.96875 -7.515625 C 2.507812 -9.054688 2.28125 -10.679688 2.28125 -12.390625 L 8.953125 -12.390625 C 8.984375 -10.554688 9.210938 -9.101562 9.640625 -8.03125 C 10.066406 -6.96875 10.8125 -6.207031 11.875 -5.75 C 12.945312 -5.300781 14.425781 -5.078125 16.3125 -5.078125 C 18.382812 -5.078125 20.003906 -5.234375 21.171875 -5.546875 C 22.347656 -5.867188 23.179688 -6.328125 23.671875 -6.921875 C 24.160156 -7.515625 24.40625 -8.207031 24.40625 -9 C 24.40625 -10.25 23.960938 -11.1875 23.078125 -11.8125 C 22.191406 -12.4375 20.972656 -12.867188 19.421875 -13.109375 L 13.84375 -14.03125 C 10.007812 -14.632812 7.269531 -15.859375 5.625 -17.703125 C 3.976562 -19.546875 3.15625 -21.8125 3.15625 -24.5 C 3.15625 -25.925781 3.550781 -27.238281 4.34375 -28.4375 C 5.132812 -29.644531 6.457031 -30.613281 8.3125 -31.34375 C 10.175781 -32.082031 12.691406 -32.453125 15.859375 -32.453125 C 18.722656 -32.453125 21.078125 -32.109375 22.921875 -31.421875 C 24.765625 -30.734375 26.203125 -29.832031 27.234375 -28.71875 C 28.273438 -27.613281 29 -26.40625 29.40625 -25.09375 C 29.820312 -23.78125 30.03125 -22.484375 30.03125 -21.203125 L 23.359375 -21.15625 C 23.359375 -23.195312 22.804688 -24.75 21.703125 -25.8125 C 20.609375 -26.882812 18.660156 -27.421875 15.859375 -27.421875 C 14.117188 -27.421875 12.753906 -27.269531 11.765625 -26.96875 C 10.773438 -26.664062 10.082031 -26.253906 9.6875 -25.734375 C 9.289062 -25.210938 9.09375 -24.632812 9.09375 -24 C 9.09375 -23.050781 9.488281 -22.132812 10.28125 -21.25 C 11.070312 -20.363281 12.351562 -19.785156 14.125 -19.515625 L 19.421875 -18.640625 C 22.222656 -18.210938 24.453125 -17.570312 26.109375 -16.71875 C 27.773438 -15.875 28.972656 -14.785156 29.703125 -13.453125 C 30.429688 -12.128906 30.796875 -10.507812 30.796875 -8.59375 C 30.796875 -7.550781 30.578125 -6.5 30.140625 -5.4375 C 29.703125 -4.375 28.941406 -3.398438 27.859375 -2.515625 C 26.773438 -1.628906 25.296875 -0.910156 23.421875 -0.359375 C 21.546875 0.179688 19.175781 0.453125 16.3125 0.453125 Z M 16.3125 0.453125"/></g></g></g><g fill-opacity="1" fill="#000000"><g transform="translate(142.656148, 42.952496)"><g><path d="M 19.328125 0.453125 C 16.984375 0.453125 14.78125 0.0859375 12.71875 -0.640625 C 10.664062 -1.367188 8.851562 -2.441406 7.28125 -3.859375 C 5.71875 -5.273438 4.492188 -7.003906 3.609375 -9.046875 C 2.722656 -11.085938 2.28125 -13.421875 2.28125 -16.046875 C 2.28125 -18.660156 2.722656 -20.976562 3.609375 -23 C 4.492188 -25.03125 5.71875 -26.742188 7.28125 -28.140625 C 8.851562 -29.546875 10.664062 -30.613281 12.71875 -31.34375 C 14.78125 -32.082031 16.984375 -32.453125 19.328125 -32.453125 C 21.679688 -32.453125 23.890625 -32.082031 25.953125 -31.34375 C 28.023438 -30.613281 29.847656 -29.546875 31.421875 -28.140625 C 32.992188 -26.742188 34.21875 -25.03125 35.09375 -23 C 35.976562 -20.976562 36.421875 -18.660156 36.421875 -16.046875 C 36.421875 -13.421875 35.976562 -11.085938 35.09375 -9.046875 C 34.21875 -7.003906 32.992188 -5.273438 31.421875 -3.859375 C 29.847656 -2.441406 28.023438 -1.367188 25.953125 -0.640625 C 23.890625 0.0859375 21.679688 0.453125 19.328125 0.453125 Z M 9.140625 -16.046875 C 9.140625 -14.003906 9.507812 -12.144531 10.25 -10.46875 C 11 -8.789062 12.128906 -7.460938 13.640625 -6.484375 C 15.148438 -5.515625 17.046875 -5.03125 19.328125 -5.03125 C 21.617188 -5.03125 23.523438 -5.515625 25.046875 -6.484375 C 26.566406 -7.460938 27.695312 -8.789062 28.4375 -10.46875 C 29.1875 -12.144531 29.5625 -14.003906 29.5625 -16.046875 C 29.5625 -18.085938 29.1875 -19.929688 28.4375 -21.578125 C 27.695312 -23.222656 26.566406 -24.53125 25.046875 -25.5 C 23.523438 -26.476562 21.617188 -26.96875 19.328125 -26.96875 C 17.046875 -26.96875 15.148438 -26.476562 13.640625 -25.5 C 12.128906 -24.53125 11 -23.222656 10.25 -21.578125 C 9.507812 -19.929688 9.140625 -18.085938 9.140625 -16.046875 Z M 9.140625 -16.046875"/></g></g></g><g fill-opacity="1" fill="#000000"><g transform="translate(181.35927, 42.952496)"><g><path d="M 2.28125 0 L 2.28125 -32 L 9.140625 -32 L 7.765625 -22.578125 L 9.140625 -22.578125 C 9.660156 -24.859375 10.515625 -26.6875 11.703125 -28.0625 C 12.890625 -29.4375 14.296875 -30.4375 15.921875 -31.0625 C 17.554688 -31.6875 19.269531 -32 21.0625 -32 L 21.0625 -26.515625 C 18.8125 -26.515625 16.785156 -26.222656 14.984375 -25.640625 C 13.191406 -25.054688 11.773438 -24.035156 10.734375 -22.578125 C 9.703125 -21.117188 9.1875 -19.0625 9.1875 -16.40625 L 9.140625 0 Z M 2.28125 0"/></g></g></g></svg>